<svg xmlns="http://www.w3.org/2000/svg" viewBox="0 0 640 480"><defs><pattern id="grain" width="16" height="16" patternUnits="userSpaceOnUse"><circle cx="2" cy="2" r=".7" fill="#645b47" opacity=".08"/></pattern><radialGradient id="light"><stop stop-color="#fffdf4"/><stop offset="1" stop-color="#e9dccc"/></radialGradient></defs><rect width="640" height="480" fill="url(#light)"/><rect width="640" height="480" fill="url(#grain)"/><path d="M470 0h170v480H530z" fill="#fffdf7" opacity=".5"/><ellipse cx="320" cy="371" rx="175" ry="27" fill="#504735" opacity=".09"/><ellipse cx="320" cy="331" rx="173" ry="65" fill="#fdf8eb" stroke="#d7cbb2" stroke-width="3"/><g stroke="#ae7442" stroke-width="3"><ellipse cx="320" cy="309" rx="111" ry="43" fill="#c38b4e"/><ellipse cx="320" cy="287" rx="111" ry="43" fill="#deb475"/><ellipse cx="320" cy="264" rx="111" ry="43" fill="#dfb374"/><ellipse cx="320" cy="241" rx="111" ry="43" fill="#e9c58b"/></g><path d="M272 234q46-18 87 0l-5 64q-13 19-20-3v-28q-17-6-27-1v39q-12 14-19-3v-48z" fill="#ad713f" opacity=".85"/><path d="M301 212l35-5 23 18-34 9-24-9z" fill="#f1db91"/><g fill="#575677"><circle cx="378" cy="209" r="10"/><circle cx="393" cy="216" r="9"/><circle cx="435" cy="325" r="10"/></g><path d="M76 366q8-53 51-78m-36 43q-27-8-18-34 28 2 18 34m18-24q-8-26 16-32 13 24-16 32" fill="#7d8b63" stroke="#697a52" stroke-width="2" opacity=".8"/></svg>